<?xml version="1.0" encoding="UTF-8"?>
<!DOCTYPE svg PUBLIC "-//W3C//DTD SVG 1.1//EN" "http://www.w3.org/Graphics/SVG/1.1/DTD/svg11.dtd">
<!-- Creator: CorelDRAW 2017 -->
<svg xmlns="http://www.w3.org/2000/svg" xml:space="preserve" width="1239px" height="1239px" version="1.1" style="shape-rendering:geometricPrecision; text-rendering:geometricPrecision; image-rendering:optimizeQuality; fill-rule:evenodd; clip-rule:evenodd"
viewBox="0 0 469.23 469.23"
 xmlns:xlink="http://www.w3.org/1999/xlink">
 <defs>
  <style type="text/css">
   <![CDATA[
    .str0 {stroke:#E9E9E9;stroke-width:17.89;stroke-miterlimit:22.9256}
    .str2 {stroke:#E9E9E9;stroke-width:17.89;stroke-linejoin:bevel;stroke-miterlimit:22.9256}
    .str1 {stroke:#E9E9E9;stroke-width:17.89;stroke-linejoin:bevel;stroke-miterlimit:16.3804}
    .fil0 {fill:none}
   ]]>
  </style>
 </defs>
 <g id="Слой_x0020_1">
  <metadata id="CorelCorpID_0Corel-Layer"/>
  <circle class="fil0 str0" cx="234.61" cy="234.61" r="225.67"/>
  <path class="fil0 str1" d="M215.89 89.25c0.05,-7.58 0,-43.45 0,-45.98 -27.53,1.67 -66.23,13.95 -98.77,38.89 -42.55,32.61 -66.09,80.2 -70.43,107.94 0,0 150.23,28.18 169.57,32.46 0.1,19 0.58,205.82 0.39,205.8 -25.62,-2.16 -59.46,-12.21 -89.65,-32.12 -28.41,-18.74 -57.4,-47.46 -76.5,-101.47 0,-0.01 41.88,-11.98 45.55,-13.16"/>
  <path class="fil0 str2" d="M249.12 42.96c48.58,3.76 89.18,24.23 121.63,55.65 40.86,39.55 53,98.19 53.51,100.25l-143.17 35.63 144.73 28.63c-6.92,31.31 -22.89,78.49 -55.41,109.92 -31.1,30.06 -73.42,52.41 -121.29,55.31l0 -385.39z"/>
  <circle class="fil0" cx="234.53" cy="235.66" r="193.24"/>
 </g>
</svg>
